<svg xmlns="http://www.w3.org/2000/svg" width="179" height="292" viewBox="0 0 179 292" version="1.1"><title>Desktop HD</title><desc>Created with Sketch.</desc><g stroke="none" stroke-width="1" fill="none" fill-rule="evenodd"><g fill="#61E475"><path d="M76 121.95C76 200.47 89.6 284.23 89.6 284.23 89.6 284.23 90.18 227.77 101.29 121.95 108.34 54.83 104.19 20.86 101.29 9 89.6 32.32 76 43.42 76 121.95Z"/><path d="M124.42 223.44C155.07 158.21 150.3 167.01 166.73 127 105.82 145.44 98.23 283.4 98.23 283.4 98.23 283.4 93.77 288.68 124.42 223.44Z"/><path d="M36.42 223.44C67.07 158.21 62.3 167.01 78.73 127 17.82 145.44 10.23 283.4 10.23 283.4 10.23 283.4 5.77 288.68 36.42 223.44Z" transform="translate(44.362735, 205.249979) scale(-1, 1) translate(-44.362735, -205.249979) "/></g></g></svg>